<?xml version="1.0" encoding="UTF-8"?>
<!DOCTYPE svg PUBLIC "-//W3C//DTD SVG 1.1//EN" "http://www.w3.org/Graphics/SVG/1.1/DTD/svg11.dtd">
<svg xmlns="http://www.w3.org/2000/svg" version="1.1" width="1024px" height="1024px" style="shape-rendering:geometricPrecision; text-rendering:geometricPrecision; image-rendering:optimizeQuality; fill-rule:evenodd; clip-rule:evenodd" xmlns:xlink="http://www.w3.org/1999/xlink">
<g><path fill="#1b283c" stroke="#1b283c" stroke-width="0.5" d="M 303.59,790.61 C 301.19,789.15 298.9,787.54 296.73,785.76 C 297.27,785.14 297.27,784.51 296.75,783.86 C 281.3,772.43 266.86,759.83 253.44,746.07 C 240.38,732.56 228.32,718.22 217.26,703.03 C 212.07,695.59 207.07,688.04 202.25,680.37 C 200.34,676.64 198.22,673.02 195.91,669.52 C 192.42,662.89 188.98,656.24 185.59,649.57 C 182.56,642.68 179.49,635.82 176.37,628.99 C 175.52,626.02 174.42,623.14 173.08,620.36 C 170.51,613.45 168.11,606.49 165.87,599.46 C 164.29,593.79 162.66,588.13 161,582.49 C 160.26,578.43 159.29,574.43 158.11,570.48 C 156.64,563.15 155.26,555.82 153.97,548.48 C 153.47,544.53 153.09,540.57 152.84,536.6 C 152.52,535.6 152.23,534.6 151.97,533.59 C 151.92,531.23 151.89,528.87 151.89,526.51 C 151.49,523.85 151.15,521.18 150.87,518.51 C 150.83,515.51 150.83,512.51 150.86,509.5 C 150.69,507.51 150.48,505.52 150.25,503.53 C 150.1,493.15 150.33,482.78 150.93,472.42 C 151.5,464.76 152.18,457.11 152.99,449.47 C 153.15,448.42 153.42,447.39 153.79,446.39 C 154.52,441.08 155.27,435.78 156.06,430.48 C 157.81,422.82 159.47,415.15 161.03,407.48 C 166.82,385.19 174.61,363.61 184.41,342.76 C 187.44,336.85 190.44,330.93 193.4,324.99 C 203.76,305.84 215.85,287.87 229.7,271.07 C 233.21,266.74 236.84,262.5 240.58,258.35 C 243.62,255.29 246.54,252.12 249.35,248.85 C 254.47,243.99 259.54,239.06 264.57,234.07 C 269.44,229.95 274.27,225.77 279.06,221.55 C 283.06,218.52 286.97,215.38 290.79,212.14 C 299.85,205.47 309.1,199.07 318.54,192.93 C 323.27,190.43 327.87,187.72 332.34,184.8 C 340.42,180.5 348.53,176.27 356.69,172.12 C 365.18,168.09 373.81,164.4 382.59,161.04 C 390.22,158.22 397.9,155.56 405.64,153.08 C 409,152.29 412.31,151.32 415.56,150.15 C 422.62,148.67 429.62,146.92 436.56,144.9 C 439.4,144.53 442.24,144.12 445.07,143.67 C 446.76,142.9 448.53,142.6 450.38,142.75 C 453.42,142.11 456.47,141.52 459.54,140.99 C 460.86,140.91 462.19,140.87 463.51,140.89 C 468.86,140.27 474.2,139.56 479.54,138.78 C 481.19,138.77 482.85,138.83 484.5,138.94 C 486.5,138.52 488.5,138.19 490.53,137.93 C 502.84,138.04 515.16,137.99 527.49,137.78 C 534.18,138.03 540.85,138.4 547.5,138.9 C 554.2,139.41 560.86,140.1 567.51,140.96 C 571.53,141.46 575.52,142.12 579.47,142.93 C 585.85,144.24 592.21,145.58 598.58,146.95 C 603.85,148.39 609.12,149.76 614.4,151.08 C 621.37,153.3 628.35,155.53 635.34,157.78 C 643.77,161.05 652.16,164.41 660.51,167.85 C 665.41,170.36 670.39,172.73 675.45,174.94 C 682.91,178.76 690.3,182.7 697.63,186.75 C 702.52,189.94 707.53,192.95 712.65,195.77 C 716.8,198.74 721.04,201.6 725.37,204.33 C 728.94,207.07 732.61,209.69 736.35,212.19 C 742.09,216.78 747.81,221.39 753.51,226.01 C 755.57,227.99 757.72,229.84 759.97,231.56 C 766,237.53 772.04,243.49 778.08,249.45 C 785.91,257.69 793.45,266.2 800.69,274.98 C 804.22,279.72 807.8,284.42 811.43,289.08 C 814.33,293.46 817.3,297.8 820.33,302.1 C 830.25,318.04 839.18,334.52 847.13,351.55 C 848.89,356.31 850.83,360.98 852.96,365.59 C 856.44,374.87 859.77,384.21 862.95,393.6 C 864.82,400.92 866.79,408.22 868.84,415.5 C 869.73,420.23 870.73,424.94 871.83,429.61 C 873.37,438.56 874.8,447.52 876.11,456.5 C 876.07,459.84 876.38,463.16 877.02,466.45 C 877.14,472.15 877.51,477.84 878.11,483.51 C 878.13,490.51 878.14,497.51 878.12,504.52 C 877.49,515.47 876.65,526.4 875.62,537.31 C 874.58,543.67 873.66,550.04 872.86,556.43 C 871.61,563.11 870.29,569.78 868.89,576.43 C 866.9,583.73 864.92,591.03 862.94,598.32 C 859.48,608.41 855.89,618.44 852.17,628.43 C 850,632.82 848.09,637.31 846.42,641.92 C 843.72,646.69 841.3,651.6 839.16,656.66 C 836.05,662.47 832.91,668.26 829.73,674.03 C 820.69,689.68 810.46,704.52 799.04,718.54 C 788.22,731.66 776.67,744.11 764.4,755.9 C 744.89,773.99 723.76,789.92 701.02,803.69 C 695.53,806.84 690.02,809.94 684.47,812.97 C 672.69,818.82 660.73,824.28 648.6,829.36 C 645.04,830.74 641.49,832.11 637.97,833.48 C 631.49,835.75 624.97,837.91 618.43,839.96 C 617.6,840.21 616.76,840.33 615.9,840.31 C 611.75,841.53 607.62,842.8 603.51,844.14 C 597.81,845.3 592.15,846.56 586.5,847.93 C 584.42,847.78 582.42,848.12 580.51,848.96 C 576.46,849.38 572.46,850.08 568.51,851.07 C 567.21,851.16 565.92,851.19 564.62,851.15 C 563.28,851.52 561.93,851.82 560.57,852.06 C 555.53,852.68 550.49,853.22 545.45,853.66 C 539.79,853.96 534.14,854.33 528.5,854.77 C 517.84,854.79 507.17,854.78 496.51,854.74 C 494.16,854.7 491.83,854.46 489.51,854.03 C 487.5,854.11 485.49,854.14 483.47,854.12 C 479.85,853.17 476.17,852.8 472.44,853.01 C 471.08,852.77 469.73,852.47 468.4,852.09 C 467.09,852.07 465.79,852.09 464.48,852.14 C 454.48,850.39 444.49,848.65 434.51,846.9 C 431.35,846.02 428.21,845.13 425.07,844.26 C 423.88,844.23 422.7,844.09 421.53,843.84 C 412.84,841.42 404.2,838.81 395.62,836.01 C 392.7,834.76 389.71,833.7 386.66,832.83 C 373.55,827.57 360.65,821.82 347.97,815.58 C 333.52,808.05 319.56,799.68 306.1,790.47 C 305.59,790.17 305.04,790.01 304.44,789.99 C 304.01,790 303.72,790.21 303.59,790.61 Z M 350.48,472.82 C 350.2,472.52 349.87,472.33 349.47,472.25 C 349.06,473.95 348.9,475.7 348.98,477.5 C 349.03,490.51 349.05,503.53 349.02,516.54 C 348.85,517.65 349.25,518.43 350.2,518.87 C 350.6,519.7 351.12,520.43 351.77,521.07 C 352.21,521.21 352.61,521.16 352.98,520.9 C 354.01,522.28 354.97,523.73 355.84,525.23 C 355.86,526.13 356.27,526.81 357.05,527.28 C 358.71,528.38 360.52,528.95 362.5,528.98 C 401.8,528.94 441.11,528.93 480.41,528.97 C 480.91,529.34 481.14,529.84 481.09,530.47 C 481.01,566.16 480.99,601.85 481.03,637.54 C 480.99,639.72 481.15,641.88 481.5,644.02 C 483.12,649.07 486.48,652.3 491.59,653.73 C 504.94,653.93 518.29,653.95 531.64,653.79 C 533.05,653.43 534.43,652.97 535.78,652.41 C 539.58,650.12 541.92,646.79 542.8,642.41 C 542.8,604.77 542.88,567.14 543.02,529.51 C 543.4,529.08 543.89,528.89 544.48,528.93 C 583.48,528.92 622.47,528.92 661.47,528.93 C 665.53,528.8 668.85,527.16 671.42,524 C 671.92,522.83 672.57,521.76 673.37,520.78 C 673.63,520.07 673.8,519.35 673.9,518.61 C 673.93,503.55 673.96,488.49 674,473.43 C 674.07,472.81 673.85,472.33 673.34,471.99 C 672.82,471.97 672.49,472.21 672.37,472.72 C 670.96,468.64 668.17,466.06 663.99,464.98 C 664.35,464.27 664.19,463.71 663.51,463.29 C 662.2,463.13 660.88,463.05 659.55,463.07 C 620.86,463.13 582.18,463.09 543.5,462.95 C 542.98,462.64 542.76,462.18 542.83,461.56 C 542.81,425.19 542.82,388.82 542.86,352.45 C 542.63,350.85 542.23,349.3 541.68,347.78 C 541.12,346.41 540.42,345.13 539.6,343.93 C 538.17,342.25 536.42,341.05 534.34,340.31 C 520.41,340.14 506.48,340.06 492.54,340.05 C 490.84,340.14 489.21,340.56 487.67,341.31 C 484.37,343.29 482.2,346.15 481.14,349.87 C 481.13,387.11 481.16,424.36 481.24,461.6 C 481.32,462.25 481.09,462.76 480.57,463.12 C 441.22,463.16 401.86,463.17 362.51,463.15 C 356.27,463.62 352.26,466.84 350.48,472.82 Z"/></g>
<g><path fill="#ffffff" stroke="#ffffff" stroke-width="0.5" d="M 663.99,464.98 C 668.17,466.06 670.96,468.64 672.37,472.72 C 672.72,473.61 672.92,474.54 672.95,475.5 C 672.89,489.17 672.89,502.85 672.94,516.52 C 672.5,518.57 671.77,520.5 670.76,522.34 C 668.74,525.23 665.99,526.85 662.5,527.19 C 623.5,527.29 584.5,527.32 545.49,527.3 C 544.14,527.21 542.87,527.5 541.69,528.15 C 541.26,528.87 541.07,529.65 541.13,530.5 C 541.18,567.84 541.13,605.18 540.99,642.53 C 540.51,645.9 538.85,648.55 536.02,650.47 C 533.74,651.93 531.23,652.51 528.5,652.19 C 516.16,652.23 503.81,652.16 491.47,651.98 C 490.96,651.95 490.46,651.83 489.99,651.62 C 487.11,650.1 484.9,647.92 483.37,645.05 C 482.96,643.23 482.79,641.38 482.84,639.5 C 482.82,602.83 482.83,566.16 482.87,529.49 C 482.97,528.75 482.77,528.13 482.27,527.61 C 443.02,527.33 403.76,527.21 364.5,527.25 C 362.85,527.2 361.21,527.07 359.57,526.88 C 358.35,526.29 357.1,525.74 355.84,525.23 C 354.97,523.73 354.01,522.28 352.98,520.9 C 352.23,519.53 351.9,518.07 351.99,516.5 C 352,502.16 352,487.82 352,473.47 C 353.08,468.3 356.25,465.45 361.5,464.91 C 400.5,464.8 439.5,464.77 478.51,464.8 C 481.78,465.2 483.25,463.77 482.9,460.51 C 482.85,423.83 482.88,387.16 482.98,350.48 C 484.08,345.3 487.24,342.19 492.47,341.13 C 505.49,340.95 518.52,340.96 531.54,341.14 C 538.38,342.97 541.57,347.42 541.11,354.5 C 541.09,390.5 541.08,426.51 541.09,462.51 C 540.99,463.28 541.18,463.96 541.67,464.53 C 582.44,464.75 623.21,464.9 663.99,464.98 Z"/></g>
<g><path fill="#15171f" fill-opacity="0.969" d="M 303.59,790.61 C 303.72,790.21 304.01,790 304.44,789.99 C 305.04,790.01 305.59,790.17 306.1,790.47 C 319.56,799.68 333.52,808.05 347.97,815.58 C 360.65,821.82 373.55,827.57 386.66,832.83 C 389.71,833.7 392.7,834.76 395.62,836.01 C 404.2,838.81 412.84,841.42 421.53,843.84 C 422.7,844.09 423.88,844.23 425.07,844.26 C 428.21,845.13 431.35,846.02 434.51,846.9 C 444.49,848.65 454.48,850.39 464.48,852.14 C 465.79,852.09 467.09,852.07 468.4,852.09 C 469.73,852.47 471.08,852.77 472.44,853.01 C 476.17,852.8 479.85,853.17 483.47,854.12 C 485.49,854.14 487.5,854.11 489.51,854.03 C 491.83,854.46 494.16,854.7 496.51,854.74 C 507.17,854.78 517.84,854.79 528.5,854.77 C 534.14,854.33 539.79,853.96 545.45,853.66 C 550.49,853.22 555.53,852.68 560.57,852.06 C 561.93,851.82 563.28,851.52 564.62,851.15 C 565.92,851.19 567.21,851.16 568.51,851.07 C 572.46,850.08 576.46,849.38 580.51,848.96 C 582.42,848.12 584.42,847.78 586.5,847.93 C 592.15,846.56 597.81,845.3 603.51,844.14 C 607.62,842.8 611.75,841.53 615.9,840.31 C 616.76,840.33 617.6,840.21 618.43,839.96 C 624.97,837.91 631.49,835.75 637.97,833.48 C 641.49,832.11 645.04,830.74 648.6,829.36 C 660.73,824.28 672.69,818.82 684.47,812.97 C 690.02,809.94 695.53,806.84 701.02,803.69 C 723.76,789.92 744.89,773.99 764.4,755.9 C 776.67,744.11 788.22,731.66 799.04,718.54 C 810.46,704.52 820.69,689.68 829.73,674.03 C 832.91,668.26 836.05,662.47 839.16,656.66 C 841.3,651.6 843.72,646.69 846.42,641.92 C 848.09,637.31 850,632.82 852.17,628.43 C 855.89,618.44 859.48,608.41 862.94,598.32 C 864.92,591.03 866.9,583.73 868.89,576.43 C 870.29,569.78 871.61,563.11 872.86,556.43 C 873.66,550.04 874.58,543.67 875.62,537.31 C 876.65,526.4 877.49,515.47 878.12,504.52 C 878.14,497.51 878.13,490.51 878.11,483.51 C 877.51,477.84 877.14,472.15 877.02,466.45 C 876.38,463.16 876.07,459.84 876.11,456.5 C 874.8,447.52 873.37,438.56 871.83,429.61 C 870.73,424.94 869.73,420.23 868.84,415.5 C 866.79,408.22 864.82,400.92 862.95,393.6 C 859.77,384.21 856.44,374.87 852.96,365.59 C 850.83,360.98 848.89,356.31 847.13,351.55 C 839.18,334.52 830.25,318.04 820.33,302.1 C 817.3,297.8 814.33,293.46 811.43,289.08 C 807.8,284.42 804.22,279.72 800.69,274.98 C 793.45,266.2 785.91,257.69 778.08,249.45 C 772.04,243.49 766,237.53 759.97,231.56 C 757.72,229.84 755.57,227.99 753.51,226.01 C 747.81,221.39 742.09,216.78 736.35,212.19 C 732.61,209.69 728.94,207.07 725.37,204.33 C 721.04,201.6 716.8,198.74 712.65,195.77 C 707.53,192.95 702.52,189.94 697.63,186.75 C 690.3,182.7 682.91,178.76 675.45,174.94 C 670.39,172.73 665.41,170.36 660.51,167.85 C 652.16,164.41 643.77,161.05 635.34,157.78 C 628.35,155.53 621.37,153.3 614.4,151.08 C 609.12,149.76 603.85,148.39 598.58,146.95 C 592.21,145.58 585.85,144.24 579.47,142.93 C 575.52,142.12 571.53,141.46 567.51,140.96 C 560.86,140.1 554.2,139.41 547.5,138.9 C 540.85,138.4 534.18,138.03 527.49,137.78 C 515.16,137.99 502.84,138.04 490.53,137.93 C 488.5,138.19 486.5,138.52 484.5,138.94 C 482.85,138.83 481.19,138.77 479.54,138.78 C 474.2,139.56 468.86,140.27 463.51,140.89 C 462.19,140.87 460.86,140.91 459.54,140.99 C 456.47,141.52 453.42,142.11 450.38,142.75 C 448.53,142.6 446.76,142.9 445.07,143.67 C 442.24,144.12 439.4,144.53 436.56,144.9 C 429.62,146.92 422.62,148.67 415.56,150.15 C 412.31,151.32 409,152.29 405.64,153.08 C 397.9,155.56 390.22,158.22 382.59,161.04 C 373.81,164.4 365.18,168.09 356.69,172.12 C 348.53,176.27 340.42,180.5 332.34,184.8 C 327.87,187.72 323.27,190.43 318.54,192.93 C 309.1,199.07 299.85,205.47 290.79,212.14 C 286.97,215.38 283.06,218.52 279.06,221.55 C 274.27,225.77 269.44,229.95 264.57,234.07 C 259.54,239.06 254.47,243.99 249.35,248.85 C 246.54,252.12 243.62,255.29 240.58,258.35 C 236.84,262.5 233.21,266.74 229.7,271.07 C 215.85,287.87 203.76,305.84 193.4,324.99 C 190.44,330.93 187.44,336.85 184.41,342.76 C 174.61,363.61 166.82,385.19 161.03,407.48 C 159.47,415.15 157.81,422.82 156.06,430.48 C 155.27,435.78 154.52,441.08 153.79,446.39 C 153.42,447.39 153.15,448.42 152.99,449.47 C 152.18,457.11 151.5,464.76 150.93,472.42 C 150.33,482.78 150.1,493.15 150.25,503.53 C 150.48,505.52 150.69,507.51 150.86,509.5 C 150.83,512.51 150.83,515.51 150.87,518.51 C 151.15,521.18 151.49,523.85 151.89,526.51 C 151.89,528.87 151.92,531.23 151.97,533.59 C 152.23,534.6 152.52,535.6 152.84,536.6 C 153.09,540.57 153.47,544.53 153.97,548.48 C 155.26,555.82 156.64,563.15 158.11,570.48 C 159.29,574.43 160.26,578.43 161,582.49 C 162.66,588.13 164.29,593.79 165.87,599.46 C 168.11,606.49 170.51,613.45 173.08,620.36 C 174.42,623.14 175.52,626.02 176.37,628.99 C 179.49,635.82 182.56,642.68 185.59,649.57 C 188.98,656.24 192.42,662.89 195.91,669.52 C 198.22,673.02 200.34,676.64 202.25,680.37 C 207.07,688.04 212.07,695.59 217.26,703.03 C 228.32,718.22 240.38,732.56 253.44,746.07 C 266.86,759.83 281.3,772.43 296.75,783.86 C 297.27,784.51 297.27,785.14 296.73,785.76 C 292.44,782.76 288.25,779.62 284.15,776.35 C 279.14,772.38 274.26,768.24 269.52,763.93 C 265.24,759.88 261,755.8 256.79,751.69 C 219.99,715.44 192.13,673.3 173.19,625.25 C 171.2,619.91 169.2,614.57 167.2,609.23 C 165.02,602.66 163,596.05 161.15,589.4 C 159.75,584.14 158.4,578.86 157.11,573.55 C 155.43,564.9 153.79,556.24 152.21,547.56 C 151.13,537.88 150.06,528.2 149.02,518.51 C 148.66,504.18 148.66,489.84 149.02,475.51 C 149.62,467.82 150.32,460.14 151.12,452.47 C 152.26,445.47 153.29,438.45 154.21,431.42 C 155.31,426.5 156.29,421.56 157.14,416.6 C 158.92,410 160.61,403.37 162.21,396.73 C 164.09,390.36 166.11,384.03 168.25,377.73 C 171.08,369.99 174.04,362.3 177.13,354.65 C 179.46,349.66 181.78,344.66 184.09,339.66 C 194.05,318.72 206.04,299.01 220.05,280.53 C 223.58,276.01 227.13,271.51 230.69,267.04 C 231.53,266.95 231.93,266.49 231.9,265.64 C 234.64,262.94 237.17,260.06 239.5,257 C 244.79,251.63 250.06,246.23 255.31,240.83 C 260.83,235.32 266.55,230.05 272.49,225.01 C 278.3,220.14 284.16,215.34 290.06,210.59 C 304.38,199.87 319.34,190.15 334.95,181.4 C 342.83,177.21 350.78,173.15 358.79,169.23 C 366.68,165.68 374.66,162.35 382.72,159.24 C 391.62,156.01 400.58,152.98 409.61,150.16 C 415.94,148.58 422.23,146.9 428.49,145.11 C 435.11,143.64 441.77,142.31 448.46,141.11 C 455.16,140.35 461.82,139.39 468.45,138.22 C 474.12,137.49 479.83,137.03 485.56,136.83 C 486.49,136.42 487.46,136.13 488.46,135.97 C 501.81,135.97 515.15,135.98 528.5,135.99 C 538.19,136.59 547.88,137.3 557.57,138.1 C 562.89,138.78 568.21,139.45 573.53,140.12 C 577.12,140.91 580.74,141.58 584.38,142.13 C 594.09,144.41 603.8,146.74 613.51,149.11 C 621.84,151.61 630.13,154.27 638.37,157.1 C 664.1,166.81 688.66,178.93 712.03,193.46 C 720.68,199.09 729.16,204.95 737.49,211.03 C 745.09,217.06 752.6,223.22 760,229.51 C 765.94,235.23 771.9,240.93 777.87,246.61 C 783.67,252.84 789.38,259.14 795,265.51 C 799.38,270.5 803.55,275.66 807.52,280.97 C 811.96,286.91 816.25,292.95 820.4,299.1 C 831.56,316.57 841.38,334.75 849.88,353.65 C 853.38,361.94 856.68,370.31 859.78,378.75 C 862.72,387.28 865.41,395.9 867.85,404.6 C 869.41,411.63 871.07,418.63 872.85,425.6 C 874.48,435.89 876.12,446.17 877.78,456.43 C 877.81,460.49 878.21,464.51 878.98,468.5 C 878.74,473.54 879,478.55 879.75,483.53 C 879.76,491.87 879.75,500.21 879.73,508.55 C 879.37,510.51 879.13,512.49 879.02,514.49 C 879.26,518.53 878.96,522.53 878.11,526.47 C 878,531.51 877.59,536.52 876.86,541.51 C 875.66,549.83 874.32,558.14 872.84,566.42 C 871.65,570.7 870.66,575.02 869.86,579.39 C 867.93,585.65 866.2,591.97 864.67,598.33 C 862.19,606.02 859.56,613.66 856.78,621.24 C 848.28,642.6 838.16,663.16 826.41,682.92 C 824.35,685.9 822.4,688.94 820.54,692.04 C 816.03,698.79 811.33,705.4 806.43,711.89 C 801.8,717.6 797.15,723.31 792.5,729 C 789.29,732.16 786.29,735.5 783.5,739.02 C 776.76,745.94 769.94,752.77 763.01,759.5 C 759.5,762.28 756.12,765.23 752.88,768.34 C 746.7,773.53 740.41,778.59 734.02,783.53 C 728.19,787.72 722.32,791.85 716.41,795.93 C 708.72,801.01 700.88,805.83 692.88,810.39 C 678.71,817.99 664.2,824.82 649.34,830.88 C 641.04,833.98 632.72,836.97 624.38,839.83 C 614.47,842.71 604.53,845.4 594.54,847.88 C 585.53,849.59 576.52,851.25 567.51,852.88 C 558.51,853.81 549.52,854.77 540.54,855.75 C 533.2,855.91 525.86,856.08 518.52,856.26 C 507.85,856.04 497.17,855.94 486.49,855.98 C 477.13,855.04 467.79,854.01 458.47,852.9 C 450.85,851.7 443.26,850.33 435.7,848.77 C 429,847.13 422.29,845.49 415.58,843.85 C 408.88,842.04 402.24,840.04 395.64,837.84 C 386.26,834.37 376.96,830.69 367.75,826.8 C 350.59,819.11 334.03,810.33 318.05,800.44 C 313.12,797.32 308.3,794.04 303.59,790.61 Z M 355.84,525.23 C 357.1,525.74 358.35,526.29 359.57,526.88 C 361.21,527.07 362.85,527.2 364.5,527.25 C 403.76,527.21 443.02,527.33 482.27,527.61 C 482.77,528.13 482.97,528.75 482.87,529.49 C 482.83,566.16 482.82,602.83 482.84,639.5 C 482.79,641.38 482.96,643.23 483.37,645.05 C 484.9,647.92 487.11,650.1 489.99,651.62 C 490.46,651.83 490.96,651.95 491.47,651.98 C 503.81,652.16 516.16,652.23 528.5,652.19 C 531.23,652.51 533.74,651.93 536.02,650.47 C 538.85,648.55 540.51,645.9 540.99,642.53 C 541.13,605.18 541.18,567.84 541.13,530.5 C 541.07,529.65 541.26,528.87 541.69,528.15 C 542.87,527.5 544.14,527.21 545.49,527.3 C 584.5,527.32 623.5,527.29 662.5,527.19 C 665.99,526.85 668.74,525.23 670.76,522.34 C 671.77,520.5 672.5,518.57 672.94,516.52 C 672.89,502.85 672.89,489.17 672.95,475.5 C 672.92,474.54 672.72,473.61 672.37,472.72 C 672.49,472.21 672.82,471.97 673.34,471.99 C 673.85,472.33 674.07,472.81 674,473.43 C 673.96,488.49 673.93,503.55 673.9,518.61 C 673.8,519.35 673.63,520.07 673.37,520.78 C 672.57,521.76 671.92,522.83 671.42,524 C 668.85,527.16 665.53,528.8 661.47,528.93 C 622.47,528.92 583.48,528.92 544.48,528.93 C 543.89,528.89 543.4,529.08 543.02,529.51 C 542.88,567.14 542.8,604.77 542.8,642.41 C 541.92,646.79 539.58,650.12 535.78,652.41 C 534.43,652.97 533.05,653.43 531.64,653.79 C 518.29,653.95 504.94,653.93 491.59,653.73 C 486.48,652.3 483.12,649.07 481.5,644.02 C 481.15,641.88 480.99,639.72 481.03,637.54 C 480.99,601.85 481.01,566.16 481.09,530.47 C 481.14,529.84 480.91,529.34 480.41,528.97 C 441.11,528.93 401.8,528.94 362.5,528.98 C 360.52,528.95 358.71,528.38 357.05,527.28 C 356.27,526.81 355.86,526.13 355.84,525.23 Z"/></g>
<g><path fill="#23232a" fill-opacity="0.996" d="M 663.99,464.98 C 623.21,464.9 582.44,464.75 541.67,464.53 C 541.18,463.96 540.99,463.28 541.09,462.51 C 541.08,426.51 541.09,390.5 541.11,354.5 C 541.57,347.42 538.38,342.97 531.54,341.14 C 518.52,340.96 505.49,340.95 492.47,341.13 C 487.24,342.19 484.08,345.3 482.98,350.48 C 482.88,387.16 482.85,423.83 482.9,460.51 C 483.25,463.77 481.78,465.2 478.51,464.8 C 439.5,464.77 400.5,464.8 361.5,464.91 C 356.25,465.45 353.08,468.3 352,473.47 C 352,487.82 352,502.16 351.99,516.5 C 351.9,518.07 352.23,519.53 352.98,520.9 C 352.61,521.16 352.21,521.21 351.77,521.07 C 351.12,520.43 350.6,519.7 350.2,518.87 C 349.99,505.08 349.89,491.29 349.89,477.49 C 349.87,475.91 350.07,474.35 350.48,472.82 C 352.26,466.84 356.27,463.62 362.51,463.15 C 401.86,463.17 441.22,463.16 480.57,463.12 C 481.09,462.76 481.32,462.25 481.24,461.6 C 481.16,424.36 481.13,387.11 481.14,349.87 C 482.2,346.15 484.37,343.29 487.67,341.31 C 489.21,340.56 490.84,340.14 492.54,340.05 C 506.48,340.06 520.41,340.14 534.34,340.31 C 536.42,341.05 538.17,342.25 539.6,343.93 C 540.42,345.13 541.12,346.41 541.68,347.78 C 542.23,349.3 542.63,350.85 542.86,352.45 C 542.82,388.82 542.81,425.19 542.83,461.56 C 542.76,462.18 542.98,462.64 543.5,462.95 C 582.18,463.09 620.86,463.13 659.55,463.07 C 660.88,463.05 662.2,463.13 663.51,463.29 C 664.19,463.71 664.35,464.27 663.99,464.98 Z"/></g>
<g><path fill="#27364b" fill-opacity="0.996" d="M 350.48,472.82 C 350.07,474.35 349.87,475.91 349.89,477.49 C 349.89,491.29 349.99,505.08 350.2,518.87 C 349.25,518.43 348.85,517.65 349.02,516.54 C 349.05,503.53 349.03,490.51 348.98,477.5 C 348.9,475.7 349.06,473.95 349.47,472.25 C 349.87,472.33 350.2,472.52 350.48,472.82 Z"/></g>
<g><path fill="#4f5967" fill-opacity="0.604" d="M 231.9,265.64 C 231.93,266.49 231.53,266.95 230.69,267.04 C 231.02,266.5 231.42,266.04 231.9,265.64 Z"/></g>
</svg>
